<?xml version="1.0" encoding="utf-8"?>
<svg viewBox="0 0 400 400" width="400" height="400" xmlns="http://www.w3.org/2000/svg">
  <path d="M 50 100 L 150 100 L 150 100.715 L 50 100.715 L 50 100 Z M 100 50 L 100.715 50 L 100.715 150 L 100 150 L 100 50 Z" style="fill: none; stroke: rgb(0, 0, 0); stroke-width: 37px; stroke-linecap: square; stroke-linejoin: round;"/>
  <path d="M 100 250 L 100.715 250 L 100.715 350 L 100 350 L 100 250 Z M 50 300 L 150 300 L 150 300.715 L 50 300.715 L 50 300 Z" style="fill: none; stroke: rgb(0, 0, 0); stroke-width: 37px; stroke-linecap: square; stroke-linejoin: round; transform-origin: 100px 300px;" transform="matrix(0.707107007504, 0.707107007504, -0.707107007504, 0.707107007504, 4.76837e-7, -0.000016212463)"/>
  <path d="M 250 300 L 350 300 L 350 300.715 L 250 300.715 L 250 300 Z M 300 250 L 300.715 250 L 300.715 350 L 300 350 L 300 250 Z" style="fill: none; stroke: rgb(0, 0, 0); stroke-width: 37px; stroke-linecap: square; stroke-linejoin: round;"/>
  <path d="M 300 50 L 300.715 50 L 300.715 150 L 300 150 L 300 50 Z M 250 100 L 350 100 L 350 100.715 L 250 100.715 L 250 100 Z" style="fill: none; stroke: rgb(0, 0, 0); stroke-width: 37px; stroke-linecap: square; stroke-linejoin: round; transform-origin: 300px 100px;" transform="matrix(0.707106113434, 0.707107007504, -0.707107007504, 0.707106113434, 0.000024762867, -0.000022621703)"/>
</svg>